<?xml version="1.0" standalone="no"?>
<!DOCTYPE svg PUBLIC "-//W3C//DTD SVG 20010904//EN"
 "http://www.w3.org/TR/2001/REC-SVG-20010904/DTD/svg10.dtd">
<svg version="1.0" xmlns="http://www.w3.org/2000/svg"
 width="700.000000pt" height="700.000000pt" viewBox="0 0 700.000000 700.000000"
 preserveAspectRatio="xMidYMid meet">
<metadata>
Created by potrace 1.14, written by Peter Selinger 2001-2017
</metadata>
<g transform="translate(0.000000,700.000000) scale(0.100000,-0.100000)"
fill="#000000" stroke="none">
<path d="M3278 6995 c-2 -1 -42 -5 -89 -9 -47 -4 -95 -8 -105 -10 -10 -2 -45
-7 -78 -11 -70 -8 -84 -11 -211 -36 -56 -12 -114 -30 -132 -42 -63 -43 -80
-136 -37 -202 23 -34 87 -64 128 -60 32 4 41 6 161 30 39 8 90 16 115 20 25 3
56 7 70 9 14 2 68 6 120 10 129 9 157 14 188 30 99 51 102 192 5 249 -26 15
-125 31 -135 22z"/>
<path d="M4175 6903 c-78 -42 -105 -123 -65 -197 25 -47 59 -65 176 -95 141
-37 188 -51 309 -96 55 -20 122 -45 149 -55 88 -32 162 -5 196 73 27 60 7 139
-43 171 -62 41 -340 139 -529 186 -133 34 -152 35 -193 13z"/>
<path d="M1801 6558 c-42 -22 -86 -46 -98 -52 -13 -6 -23 -14 -23 -18 0 -5 -5
-8 -10 -8 -31 0 -369 -248 -392 -287 -63 -107 32 -243 152 -218 26 5 37 12
200 130 104 76 180 125 280 180 106 60 144 108 136 175 -2 14 -4 30 -5 37 -2
20 -53 74 -80 85 -53 21 -83 16 -160 -24z"/>
<path d="M5522 6260 c-73 -33 -105 -126 -68 -198 8 -16 32 -42 52 -58 76 -58
222 -194 321 -298 57 -59 115 -114 130 -121 61 -32 138 -9 186 57 22 29 25
103 7 138 -34 64 -395 412 -490 472 -39 25 -93 28 -138 8z"/>
<path d="M715 5593 c-37 -20 -38 -21 -139 -173 -99 -149 -233 -391 -242 -437
-21 -110 72 -201 177 -173 51 14 82 49 134 152 61 121 135 245 210 354 76 109
86 148 53 213 -38 73 -123 102 -193 64z"/>
<path d="M6441 5088 c-46 -31 -73 -84 -68 -128 3 -20 30 -94 62 -165 32 -72
82 -204 112 -294 59 -178 72 -202 120 -226 71 -35 152 -7 190 65 29 54 26 78
-29 242 -84 254 -181 471 -225 502 -15 11 -49 21 -77 24 -41 3 -57 -1 -85 -20z"/>
<path d="M1828 4648 c-47 -27 -68 -60 -74 -116 -5 -39 -2 -53 18 -81 48 -71
60 -75 240 -77 90 -1 166 -2 169 -3 4 0 6 -65 5 -143 l-1 -143 -290 -1 c-159
0 -306 -4 -326 -7 -92 -18 -139 -139 -85 -218 47 -69 47 -69 493 -69 l398 0
54 -161 c54 -162 55 -178 16 -179 -19 0 -134 -75 -185 -120 -87 -75 -152 -178
-191 -297 -20 -61 -22 -92 -25 -323 -2 -140 -4 -282 -4 -316 l0 -60 -89 -1
c-96 -1 -135 -14 -170 -59 -61 -78 -22 -197 74 -222 50 -13 616 -14 665 -2 67
18 116 96 101 162 -21 90 -67 119 -194 121 l-94 1 2 286 c1 157 5 299 10 315
27 100 104 191 201 237 l61 29 69 -69 c115 -114 251 -182 410 -205 113 -17
778 -14 859 3 147 30 266 94 372 197 46 45 75 66 88 64 68 -10 178 -99 218
-176 39 -77 43 -120 43 -405 l-1 -275 -92 -1 c-100 -2 -144 -19 -176 -68 -33
-49 -25 -127 17 -175 41 -46 61 -49 400 -49 293 -1 322 1 356 18 52 26 74 64
74 127 1 59 -21 96 -74 127 -26 15 -52 20 -121 19 l-89 0 0 36 c-4 499 -7 579
-24 641 -50 183 -175 337 -344 420 -37 18 -69 35 -70 36 -2 1 20 75 49 163
l54 161 390 1 c214 0 401 2 414 5 59 11 111 79 111 144 0 47 -37 106 -79 126
-31 15 -76 17 -341 18 l-305 1 -2 143 c-1 78 1 143 5 143 4 1 77 2 162 3 185
3 217 13 250 80 34 72 19 138 -45 188 l-30 23 -470 1 c-323 1 -482 -2 -505
-10 -43 -14 -91 -74 -94 -117 -3 -40 10 -87 33 -113 37 -43 69 -50 231 -52 85
-1 158 -2 163 -3 4 0 7 -65 7 -144 l0 -143 -1017 1 -1018 0 -3 145 -3 145 164
1 c187 0 215 9 253 78 38 67 18 139 -50 190 -27 20 -39 21 -506 22 -455 1
-480 0 -512 -18z m2440 -1007 c-27 -82 -59 -165 -72 -184 -13 -19 -27 -44 -30
-55 -11 -33 -104 -119 -155 -143 -100 -48 -113 -49 -511 -49 -355 0 -380 1
-440 21 -99 32 -209 117 -226 174 -4 11 -15 29 -25 41 -11 11 -44 93 -73 182
l-55 162 818 0 818 0 -49 -149z"/>
<path d="M134 4220 c-42 -22 -66 -51 -76 -95 -10 -39 -28 -156 -34 -220 -3
-27 -7 -66 -10 -85 -13 -97 -16 -340 -4 -374 38 -115 211 -124 263 -14 10 22
17 78 21 173 3 77 8 156 10 175 3 19 7 62 11 95 9 86 12 109 20 146 4 18 7 49
7 70 -2 109 -112 177 -208 129z"/>
<path d="M6781 3628 c-58 -40 -69 -75 -76 -241 -3 -81 -7 -162 -10 -180 -2
-18 -7 -57 -10 -87 -3 -30 -7 -64 -9 -75 -25 -133 -24 -175 4 -220 56 -90 189
-89 242 2 17 29 38 127 53 248 23 196 27 469 7 506 -21 39 -62 62 -116 67 -41
3 -58 -1 -85 -20z"/>
<path d="M210 2734 c-41 -17 -79 -67 -85 -115 -12 -85 192 -628 256 -685 68
-59 160 -50 214 20 42 56 38 99 -27 246 -61 138 -105 255 -139 370 -12 41 -28
87 -35 102 -31 61 -116 89 -184 62z"/>
<path d="M6455 2173 c-36 -19 -47 -33 -77 -92 -12 -25 -39 -77 -61 -115 -22
-39 -46 -84 -54 -99 -9 -16 -54 -86 -101 -155 -83 -121 -87 -130 -87 -182 0
-43 5 -62 24 -87 44 -59 127 -74 193 -35 46 27 200 262 314 478 47 90 57 118
58 159 1 111 -113 180 -209 128z"/>
<path d="M944 1430 c-46 -10 -81 -40 -99 -83 -36 -88 -15 -124 181 -321 132
-131 276 -256 326 -282 38 -20 106 -14 144 11 32 21 63 89 60 130 -5 53 -32
88 -120 160 -48 39 -151 136 -230 217 -171 174 -189 185 -262 168z"/>
<path d="M5549 1015 c-19 -6 -86 -51 -149 -98 -63 -47 -180 -125 -260 -173
-155 -94 -160 -97 -180 -133 -47 -89 33 -211 137 -211 54 0 296 145 505 302
120 91 145 128 132 201 -14 83 -107 140 -185 112z"/>
<path d="M2122 544 c-90 -46 -107 -168 -34 -236 37 -34 251 -117 447 -173 57
-16 69 -19 116 -30 11 -2 30 -7 42 -11 73 -24 152 1 188 59 15 24 19 44 16 83
-6 88 -44 120 -182 154 -135 33 -323 95 -440 144 -60 26 -115 29 -153 10z"/>
<path d="M4127 354 c-59 -12 -136 -26 -170 -29 -34 -4 -69 -8 -77 -10 -8 -2
-49 -6 -90 -9 -41 -4 -100 -9 -130 -12 -99 -9 -150 -61 -150 -153 0 -26 9 -51
30 -79 41 -57 75 -63 265 -48 100 8 128 11 182 20 21 4 54 9 73 11 19 3 46 7
60 10 14 3 52 10 85 16 69 12 134 39 154 62 26 33 39 87 29 131 -10 46 -30 71
-72 93 -43 22 -71 22 -189 -3z"/>
</g>
</svg>
